{"title":"The Hitchhikers Guide to the Galaxy 2005 BDRip DivX Atilla82","uid":7791287,"size":1370982376,"categoryP":"video","categoryS":"movies","magnet":"?xt=urn:btih:12ec3c9587a36140ee94a30f95650d9d4cdd58ad&amp;dn=The+Hitchhikers+Guide+to+the+Galaxy+2005+BDRip+DivX+Atilla82&amp;tr=udp%3A%2F%2Ftracker.openbittorrent.com%3A80&amp;tr=udp%3A%2F%2Fopen.demonii.com%3A1337&amp;tr=udp%3A%2F%2Ftracker.coppersurfer.tk%3A6969&amp;tr=udp%3A%2F%2Fexodus.desync.com%3A6969","seeders":0,"leechers":3,"uploader":"Atilla82","files":5,"time":1352030149,"description":"The.Hitchhikers.Guide.to.the.Galaxy.2005.BDRip.480p.DivX.AC3-Atilla82\n\n\n\n\nThe Hitchhiker's Guide to the Galaxy (2005)\n\nAdventure | Comedy | Sci-Fi\n &lt;a href=&quot;\nhttp://www.imdb.com/title/tt0371724/&quot; rel=&quot;nofollow&quot; target=&quot;_NEW&quot;&gt;\nhttp://www.imdb.com/title/tt0371724/&lt;/a&gt;\n\n\nMere seconds before the Earth is to be demolished by an alien construction crew,\njourneyman Arthur Dent is swept off the planet by his friend Ford Prefect, \na researcher penning a new edition of &quot;The Hitchhiker's Guide to the Galaxy.&quot;\n\n\n\n\n\nsubtitles: English, Croatian (.srt)\n\n\n\nGeneral\nComplete name : The.Hitchhikers.Guide.to.the.Galaxy.2005.BDRip.480p.DivX.AC3-Atilla82.avi\nFormat : AVI\nFormat/Info : Audio Video Interleave\nFile size : 1.28 GiB\nDuration : 1h 48mn\nOverall bit rate : 1 680 Kbps\nWriting application : VirtualDubMod 1.5.10.2 (build 2540/release)\nWriting library : VirtualDubMod build 2540/release\n\nVideo\nID : 0\nFormat : MPEG-4 Visual\nFormat settings, BVOP : 1\nFormat settings, QPel : No\nFormat settings, GMC : No warppoints\nFormat settings, Matrix : Default (H.263)\nMuxing mode : Packed bitstream\nCodec ID : DX50\nCodec ID/Hint : DivX 5\nDuration : 1h 48mn\nBit rate : 1 223 Kbps\nWidth : 720 pixels\nHeight : 300 pixels\nDisplay aspect ratio : 2.40:1\nFrame rate : 23.976 fps\nColor space : YUV\nChroma subsampling : 4:2:0\nBit depth : 8 bits\nScan type : Progressive\nCompression mode : Lossy\nBits/(Pixel*Frame) : 0.236\nStream size : 951 MiB (73%)\nWriting library : DivX 3330\n\nAudio\nID : 1\nFormat : AC-3\nFormat/Info : Audio Coding 3\nMode extension : CM (complete main)\nFormat settings, Endianness : Big\nCodec ID : 2000\nDuration : 1h 48mn\nBit rate mode : Constant\nBit rate : 448 Kbps\nChannel(s) : 6 channels\nChannel positions : Front: L C R, Side: L R, LFE\nSampling rate : 48.0 KHz\nBit depth : 16 bits\nCompression mode : Lossy\nStream size : 349 MiB (27%)\nAlignment : Split accross interleaves\nInterleave, duration : 42 ms (1.00 video frame)\nInterleave, preload duration : 500 ms\n\n\nscreenshots &lt;a href=&quot;\nhttp://www.pohrani.com/f/8/dj/3DcoySnx/screenshots.jpg&quot; rel=&quot;nofollow&quot; target=&quot;_NEW&quot;&gt;\nhttp://www.pohrani.com/f/8/dj/3DcoySnx/screenshots.jpg&lt;/a&gt;\n\n\n\n\n","torrent":{"xt":"urn:btih:12ec3c9587a36140ee94a30f95650d9d4cdd58ad","amp;dn":"The+Hitchhikers+Guide+to+the+Galaxy+2005+BDRip+DivX+Atilla82","amp;tr":["udp%3A%2F%2Ftracker.openbittorrent.com%3A80","udp%3A%2F%2Fopen.demonii.com%3A1337","udp%3A%2F%2Ftracker.coppersurfer.tk%3A6969","udp%3A%2F%2Fexodus.desync.com%3A6969"],"infoHash":"12ec3c9587a36140ee94a30f95650d9d4cdd58ad","infoHashBuffer":{"type":"Buffer","data":[18,236,60,149,135,163,97,64,238,148,163,15,149,101,13,157,76,221,88,173]},"announce":[],"urlList":[]}}